<?xml version="1.0" encoding="UTF-8"?>
<!DOCTYPE svg PUBLIC "-//W3C//DTD SVG 1.1//EN" "http://www.w3.org/Graphics/SVG/1.1/DTD/svg11.dtd">
<svg version="1.2" width="279.4mm" height="279.4mm" viewBox="0 0 27940 27940" preserveAspectRatio="xMidYMid" fill-rule="evenodd" stroke-width="28.222" stroke-linejoin="round" xmlns="http://www.w3.org/2000/svg" xmlns:ooo="http://xml.openoffice.org/svg/export" xmlns:xlink="http://www.w3.org/1999/xlink" xmlns:presentation="http://sun.com/xmlns/staroffice/presentation" xmlns:smil="http://www.w3.org/2001/SMIL20/" xmlns:anim="urn:oasis:names:tc:opendocument:xmlns:animation:1.0" xmlns:svg="urn:oasis:names:tc:opendocument:xmlns:svg-compatible:1.0" xml:space="preserve">
 <defs class="ClipPathGroup">
  <clipPath id="presentation_clip_path" clipPathUnits="userSpaceOnUse">
   <rect x="0" y="0" width="27940" height="27940"/>
  </clipPath>
  <clipPath id="presentation_clip_path_shrink" clipPathUnits="userSpaceOnUse">
   <rect x="27" y="27" width="27885" height="27885"/>
  </clipPath>
 </defs>
 <defs class="TextShapeIndex">
  <g ooo:slide="id1" ooo:id-list="id3 id4 id5 id6 id7 id8 id9 id10"/>
 </defs>
 <defs class="EmbeddedBulletChars">
  <g id="bullet-char-template-57356" transform="scale(0.00048828125,-0.00048828125)">
   <path d="M 580,1141 L 1163,571 580,0 -4,571 580,1141 Z"/>
  </g>
  <g id="bullet-char-template-57354" transform="scale(0.00048828125,-0.00048828125)">
   <path d="M 8,1128 L 1137,1128 1137,0 8,0 8,1128 Z"/>
  </g>
  <g id="bullet-char-template-10146" transform="scale(0.00048828125,-0.00048828125)">
   <path d="M 174,0 L 602,739 174,1481 1456,739 174,0 Z M 1358,739 L 309,1346 659,739 1358,739 Z"/>
  </g>
  <g id="bullet-char-template-10132" transform="scale(0.00048828125,-0.00048828125)">
   <path d="M 2015,739 L 1276,0 717,0 1260,543 174,543 174,936 1260,936 717,1481 1274,1481 2015,739 Z"/>
  </g>
  <g id="bullet-char-template-10007" transform="scale(0.00048828125,-0.00048828125)">
   <path d="M 0,-2 C -7,14 -16,27 -25,37 L 356,567 C 262,823 215,952 215,954 215,979 228,992 255,992 264,992 276,990 289,987 310,991 331,999 354,1012 L 381,999 492,748 772,1049 836,1024 860,1049 C 881,1039 901,1025 922,1006 886,937 835,863 770,784 769,783 710,716 594,584 L 774,223 C 774,196 753,168 711,139 L 727,119 C 717,90 699,76 672,76 641,76 570,178 457,381 L 164,-76 C 142,-110 111,-127 72,-127 30,-127 9,-110 8,-76 1,-67 -2,-52 -2,-32 -2,-23 -1,-13 0,-2 Z"/>
  </g>
  <g id="bullet-char-template-10004" transform="scale(0.00048828125,-0.00048828125)">
   <path d="M 285,-33 C 182,-33 111,30 74,156 52,228 41,333 41,471 41,549 55,616 82,672 116,743 169,778 240,778 293,778 328,747 346,684 L 369,508 C 377,444 397,411 428,410 L 1163,1116 C 1174,1127 1196,1133 1229,1133 1271,1133 1292,1118 1292,1087 L 1292,965 C 1292,929 1282,901 1262,881 L 442,47 C 390,-6 338,-33 285,-33 Z"/>
  </g>
  <g id="bullet-char-template-9679" transform="scale(0.00048828125,-0.00048828125)">
   <path d="M 813,0 C 632,0 489,54 383,161 276,268 223,411 223,592 223,773 276,916 383,1023 489,1130 632,1184 813,1184 992,1184 1136,1130 1245,1023 1353,916 1407,772 1407,592 1407,412 1353,268 1245,161 1136,54 992,0 813,0 Z"/>
  </g>
  <g id="bullet-char-template-8226" transform="scale(0.00048828125,-0.00048828125)">
   <path d="M 346,457 C 273,457 209,483 155,535 101,586 74,649 74,723 74,796 101,859 155,911 209,963 273,989 346,989 419,989 480,963 531,910 582,859 608,796 608,723 608,648 583,586 532,535 482,483 420,457 346,457 Z"/>
  </g>
  <g id="bullet-char-template-8211" transform="scale(0.00048828125,-0.00048828125)">
   <path d="M -4,459 L 1135,459 1135,606 -4,606 -4,459 Z"/>
  </g>
  <g id="bullet-char-template-61548" transform="scale(0.00048828125,-0.00048828125)">
   <path d="M 173,740 C 173,903 231,1043 346,1159 462,1274 601,1332 765,1332 928,1332 1067,1274 1183,1159 1299,1043 1357,903 1357,740 1357,577 1299,437 1183,322 1067,206 928,148 765,148 601,148 462,206 346,322 231,437 173,577 173,740 Z"/>
  </g>
 </defs>
 <g>
  <g id="id2" class="Master_Slide">
   <g id="bg-id2" class="Background"/>
   <g id="bo-id2" class="BackgroundObjects"/>
  </g>
 </g>
 <g class="SlideGroup">
  <g>
   <g id="container-id1">
    <g id="id1" class="Slide" clip-path="url(#presentation_clip_path)">
     <g class="Page">
      <g class="Group">
       <g class="com.sun.star.drawing.ClosedBezierShape">
        <g id="id3">
         <rect class="BoundingBox" stroke="none" fill="none" x="5562" y="686" width="16817" height="26570"/>
         <path fill="rgb(255,255,255)" stroke="none" d="M 22371,21708 C 22294,19988 22049,4045 22049,4045 22049,2950 21892,2405 20623,2249 15637,1549 11595,998 9302,686 L 9030,686 C 7833,822 6124,2636 5976,3580 5976,3580 5734,9987 5575,12174 5496,14359 5813,15066 6450,15766 7080,16390 16589,25767 17535,26710 17827,27021 18108,27202 18355,27254 L 18628,27254 C 18972,27173 19197,26755 19197,26002 L 19197,24439 20228,23427 19598,22720 17771,24516 7638,14438 C 7638,14438 8112,12718 10089,12174 10089,12174 20072,22019 21024,22953 21813,24050 22450,23427 22371,21708 Z M 20228,16785 L 20466,18030 19283,17408 18095,18030 18331,16785 17378,15845 18646,15689 19197,14514 19757,15689 21024,15845 20228,16785 Z"/>
        </g>
       </g>
       <g class="Group">
        <g class="com.sun.star.drawing.ClosedBezierShape">
         <g id="id4">
          <rect class="BoundingBox" stroke="none" fill="none" x="12654" y="2866" width="1911" height="2417"/>
          <path fill="rgb(1,80,160)" stroke="none" d="M 13423,3961 C 13423,3909 13423,3838 13423,3749 13423,3658 13423,3564 13423,3469 13425,3371 13425,3289 13425,3218 13425,3145 13425,3104 13425,3090 13475,3097 13540,3108 13616,3121 13690,3134 13764,3146 13834,3160 13904,3174 13953,3188 13980,3198 14020,3215 14059,3239 14097,3269 14135,3302 14169,3336 14198,3372 14263,3449 14315,3516 14355,3571 14395,3627 14425,3670 14445,3700 14456,3715 14463,3728 14470,3733 14476,3739 14483,3740 14490,3738 L 14553,3710 C 14557,3709 14559,3707 14562,3702 14564,3698 14564,3694 14562,3686 L 14438,3150 C 14436,3131 14431,3117 14427,3107 14422,3097 14416,3092 14407,3091 14393,3089 14371,3088 14342,3088 14312,3087 14279,3084 14243,3082 14211,3077 14157,3070 14083,3060 14007,3052 13924,3040 13830,3027 13735,3017 13643,3004 13553,2992 13463,2982 13387,2971 13326,2963 13264,2956 13228,2952 13216,2950 13091,2933 12989,2917 12913,2906 12839,2894 12783,2886 12747,2879 12711,2874 12686,2868 12677,2867 12671,2866 12666,2868 12662,2869 12657,2873 12655,2878 12655,2884 L 12655,2976 C 12655,2989 12664,2995 12684,2998 L 12812,3015 C 12855,3021 12888,3035 12909,3054 12931,3073 12942,3097 12942,3127 12942,3136 12942,3166 12942,3218 12945,3268 12944,3328 12944,3396 12947,3465 12947,3533 12947,3597 12949,3661 12949,3711 12949,3748 L 12949,3971 C 12949,4156 12947,4320 12947,4464 12944,4607 12942,4723 12940,4814 12937,4905 12937,4960 12935,4982 12935,5007 12926,5024 12913,5031 12897,5038 12875,5038 12841,5033 L 12731,5018 C 12724,5017 12720,5019 12715,5020 12711,5022 12708,5024 12708,5031 L 12708,5117 C 12708,5129 12711,5136 12713,5141 12717,5146 12722,5149 12729,5150 12749,5150 12796,5157 12868,5164 12940,5170 13052,5185 13205,5206 13366,5228 13485,5245 13560,5259 13634,5272 13676,5278 13690,5279 13699,5283 13706,5282 13710,5278 13715,5274 13717,5267 13717,5258 L 13717,5174 C 13717,5160 13706,5152 13688,5149 L 13501,5124 C 13479,5123 13461,5114 13447,5098 13434,5082 13425,5054 13425,5011 13425,4999 13425,4963 13425,4903 13425,4842 13425,4773 13423,4696 13423,4618 13423,4545 13423,4479 13423,4413 13423,4365 13423,4340 L 13423,4219 C 13486,4228 13546,4236 13602,4246 13659,4258 13713,4270 13764,4286 13791,4299 13820,4321 13847,4348 13874,4377 13899,4405 13917,4435 13928,4457 13939,4484 13953,4520 13966,4556 13973,4582 13977,4596 13980,4608 13982,4615 13986,4620 13991,4625 13998,4626 14002,4627 L 14072,4620 C 14081,4619 14085,4618 14090,4614 14092,4609 14094,4605 14094,4596 14092,4562 14088,4513 14085,4449 14081,4384 14079,4323 14079,4263 14079,4245 14079,4213 14079,4161 14079,4110 14081,4061 14081,4008 14081,3958 14083,3922 14085,3902 14085,3895 14083,3890 14081,3885 14076,3880 14072,3877 14065,3876 L 13993,3859 C 13987,3858 13982,3860 13978,3864 13973,3868 13971,3874 13969,3883 13962,3910 13953,3938 13942,3969 13930,3997 13917,4020 13899,4043 13874,4071 13847,4095 13818,4111 13789,4125 13762,4133 13735,4134 13704,4134 13659,4133 13602,4130 13546,4124 13486,4118 13423,4109 L 13423,3961 Z"/>
         </g>
        </g>
        <g class="com.sun.star.drawing.ClosedBezierShape">
         <g id="id5">
          <rect class="BoundingBox" stroke="none" fill="none" x="14666" y="3142" width="1042" height="2412"/>
          <path fill="rgb(1,80,160)" stroke="none" d="M 14961,4334 C 14961,4379 14961,4448 14958,4539 14958,4630 14956,4728 14954,4830 14954,4933 14952,5021 14949,5099 14947,5176 14947,5221 14945,5235 14938,5273 14920,5293 14893,5301 14866,5308 14835,5309 14803,5302 L 14711,5289 C 14702,5288 14698,5290 14693,5292 14689,5295 14686,5300 14686,5307 L 14686,5391 C 14686,5400 14689,5407 14693,5412 14698,5418 14702,5420 14711,5419 14727,5422 14772,5428 14850,5436 14929,5442 15048,5459 15212,5481 15360,5502 15470,5517 15542,5531 15616,5543 15659,5549 15677,5552 15695,5554 15706,5551 15706,5538 L 15706,5449 C 15706,5442 15704,5435 15699,5429 15695,5427 15688,5423 15679,5422 L 15551,5405 C 15520,5402 15495,5392 15475,5374 15455,5357 15443,5324 15443,5276 15443,5264 15443,5221 15441,5143 15441,5066 15439,4976 15439,4878 15437,4778 15437,4689 15435,4611 15435,4533 15435,4490 15435,4479 L 15435,4232 C 15435,4219 15435,4175 15435,4100 15437,4025 15437,3939 15439,3843 15439,3747 15441,3663 15441,3588 15444,3515 15444,3472 15444,3461 15444,3431 15455,3412 15477,3401 15500,3391 15529,3388 15570,3393 L 15662,3406 C 15668,3407 15675,3408 15680,3404 15684,3402 15686,3396 15686,3389 L 15686,3309 C 15686,3298 15684,3291 15682,3286 15677,3280 15673,3278 15664,3276 15646,3274 15603,3270 15536,3263 15468,3256 15354,3243 15197,3221 15044,3201 14925,3182 14842,3168 14759,3155 14707,3145 14689,3143 14682,3142 14678,3144 14673,3145 14669,3149 14667,3153 14667,3158 L 14667,3251 C 14667,3258 14669,3263 14673,3266 14678,3271 14685,3272 14691,3273 L 14844,3294 C 14875,3298 14900,3311 14918,3329 14934,3350 14945,3379 14947,3418 14950,3432 14950,3468 14952,3532 14952,3596 14954,3669 14954,3751 14956,3832 14958,3907 14958,3976 14961,4044 14961,4088 14961,4110 L 14961,4334 Z"/>
         </g>
        </g>
        <g class="com.sun.star.drawing.ClosedBezierShape">
         <g id="id6">
          <rect class="BoundingBox" stroke="none" fill="none" x="15785" y="3303" width="2275" height="2574"/>
          <path fill="rgb(1,80,160)" stroke="none" d="M 18058,5771 C 18058,5765 18058,5760 18054,5755 18052,5750 18045,5747 18034,5745 L 17930,5731 C 17906,5728 17879,5719 17845,5705 17814,5690 17784,5663 17760,5628 17717,5560 17657,5460 17580,5324 17502,5190 17421,5045 17333,4891 17248,4738 17172,4597 17102,4474 17194,4354 17280,4243 17361,4140 17441,4037 17513,3949 17576,3880 17637,3809 17684,3765 17718,3742 17747,3726 17776,3714 17808,3711 17839,3709 17875,3709 17918,3715 L 18003,3727 C 18010,3728 18014,3729 18019,3725 18021,3720 18021,3714 18021,3702 L 18021,3629 C 18021,3620 18021,3613 18017,3608 18014,3601 18008,3598 17996,3596 17981,3594 17945,3591 17891,3586 17835,3581 17765,3573 17677,3561 17556,3544 17462,3529 17394,3517 17329,3506 17287,3500 17269,3495 17260,3494 17255,3496 17251,3500 17248,3502 17248,3509 17248,3515 L 17248,3595 C 17248,3604 17248,3611 17251,3616 17253,3621 17260,3627 17266,3627 L 17345,3638 C 17381,3643 17406,3654 17417,3671 17428,3686 17435,3705 17435,3724 17430,3753 17406,3804 17361,3875 17313,3949 17257,4028 17197,4113 17136,4198 17082,4273 17037,4337 L 17024,4335 C 17008,4308 16981,4259 16945,4187 16907,4118 16869,4040 16826,3959 16786,3876 16750,3802 16721,3737 16689,3671 16674,3632 16674,3616 16674,3593 16683,3576 16698,3567 16714,3558 16736,3554 16761,3558 L 16837,3568 C 16849,3570 16858,3569 16860,3564 16864,3560 16867,3554 16867,3543 L 16867,3470 C 16867,3463 16864,3456 16862,3448 16858,3443 16851,3440 16840,3438 16829,3437 16784,3431 16710,3425 16635,3417 16521,3401 16364,3382 16206,3360 16087,3341 16009,3328 15928,3315 15883,3306 15867,3304 15861,3303 15858,3305 15856,3309 15854,3314 15852,3320 15852,3327 L 15852,3407 C 15852,3414 15854,3421 15856,3426 15858,3430 15861,3433 15867,3434 L 15975,3449 C 15991,3451 16016,3459 16045,3470 16076,3481 16101,3496 16121,3515 16141,3536 16177,3593 16231,3683 16285,3775 16343,3881 16411,4004 16478,4125 16543,4244 16606,4359 16669,4475 16720,4567 16761,4636 16655,4772 16563,4887 16487,4984 16410,5081 16343,5162 16284,5227 16226,5292 16170,5344 16118,5385 16075,5411 16031,5429 15988,5440 15943,5452 15907,5453 15880,5450 L 15804,5439 C 15797,5438 15792,5440 15790,5444 15786,5448 15786,5453 15786,5459 L 15786,5532 C 15786,5544 15786,5553 15790,5558 15792,5565 15797,5568 15804,5569 15819,5571 15858,5577 15916,5580 15974,5586 16051,5596 16145,5607 16273,5627 16370,5641 16435,5652 16500,5663 16540,5671 16556,5673 16567,5675 16574,5673 16576,5669 16581,5665 16581,5658 16581,5647 L 16581,5565 C 16581,5560 16581,5556 16576,5551 16574,5548 16567,5545 16556,5543 L 16464,5530 C 16442,5527 16421,5515 16408,5498 16392,5479 16385,5460 16385,5437 16388,5417 16403,5381 16437,5326 16469,5273 16509,5213 16556,5144 16603,5075 16653,5007 16700,4943 16747,4876 16788,4820 16821,4775 L 16835,4777 C 16866,4836 16902,4907 16947,4993 16992,5077 17035,5162 17077,5248 17122,5332 17158,5405 17187,5466 17216,5530 17230,5566 17232,5577 17232,5598 17225,5613 17210,5620 17196,5627 17169,5628 17133,5621 L 17086,5614 C 17079,5616 17075,5615 17070,5619 17068,5623 17068,5628 17068,5635 L 17068,5714 C 17068,5723 17068,5733 17073,5738 17075,5743 17082,5746 17093,5747 17106,5749 17151,5753 17230,5762 17308,5770 17409,5782 17537,5800 17715,5824 17838,5841 17912,5854 17984,5868 18025,5874 18034,5875 18045,5877 18052,5875 18054,5871 18058,5867 18058,5860 18058,5854 L 18058,5771 Z"/>
         </g>
        </g>
       </g>
       <g class="Group">
        <g class="com.sun.star.drawing.ClosedBezierShape">
         <g id="id7">
          <rect class="BoundingBox" stroke="none" fill="none" x="10861" y="7168" width="2134" height="2379"/>
          <path fill="rgb(1,80,160)" stroke="none" d="M 12049,9536 C 12197,9553 12330,9546 12449,9511 12568,9477 12671,9427 12759,9358 12849,9291 12923,9216 12986,9133 12991,9125 12995,9116 12993,9111 12993,9104 12990,9100 12986,9094 L 12932,9039 C 12923,9034 12916,9031 12907,9036 12901,9040 12892,9048 12885,9061 12824,9141 12730,9209 12602,9258 12474,9307 12319,9323 12136,9302 12083,9299 12013,9276 11927,9235 11842,9194 11748,9116 11644,8997 11570,8906 11511,8807 11471,8697 11430,8589 11401,8485 11385,8384 11370,8282 11361,8197 11361,8128 11361,7969 11383,7826 11428,7695 11473,7567 11545,7467 11641,7397 11738,7328 11864,7301 12017,7319 12136,7337 12239,7373 12329,7431 12417,7486 12493,7553 12561,7630 12628,7710 12682,7790 12725,7870 12768,7949 12797,8023 12815,8092 12819,8106 12824,8116 12831,8124 12837,8131 12844,8132 12853,8131 L 12923,8122 C 12929,8121 12934,8117 12936,8110 12938,8104 12938,8092 12938,8081 12934,8055 12927,8006 12920,7939 12911,7870 12905,7796 12896,7715 12887,7632 12880,7560 12873,7496 12869,7434 12864,7392 12864,7374 12866,7354 12862,7339 12855,7332 12848,7324 12835,7320 12810,7316 12788,7314 12774,7312 12765,7313 12758,7314 12754,7318 12752,7327 L 12725,7403 C 12722,7414 12716,7420 12707,7419 12698,7420 12682,7411 12660,7399 12603,7360 12518,7317 12408,7275 12298,7233 12169,7202 12023,7181 11828,7157 11661,7167 11527,7214 11390,7259 11277,7327 11187,7415 11077,7519 10994,7642 10942,7779 10889,7918 10862,8069 10862,8236 10862,8327 10873,8429 10900,8535 10925,8643 10963,8748 11013,8853 11064,8957 11129,9050 11206,9131 11303,9235 11415,9320 11545,9390 11674,9459 11842,9507 12049,9536 Z"/>
         </g>
        </g>
        <g class="com.sun.star.drawing.ClosedBezierShape">
         <g id="id8">
          <rect class="BoundingBox" stroke="none" fill="none" x="13179" y="7474" width="2133" height="2379"/>
          <path fill="rgb(1,80,160)" stroke="none" d="M 14366,9842 C 14515,9860 14647,9852 14766,9818 14885,9784 14989,9733 15076,9665 15166,9598 15243,9521 15303,9440 15308,9429 15312,9423 15310,9416 15310,9409 15308,9404 15303,9401 L 15249,9346 C 15240,9338 15234,9338 15225,9341 15218,9345 15209,9352 15202,9365 15142,9448 15047,9516 14919,9565 14791,9614 14636,9627 14454,9608 14400,9603 14330,9582 14245,9541 14159,9500 14065,9422 13962,9303 13887,9211 13829,9112 13788,9004 13748,8894 13719,8790 13703,8690 13687,8590 13678,8504 13680,8434 13678,8274 13701,8131 13745,8003 13790,7872 13862,7774 13959,7703 14055,7634 14181,7607 14334,7625 14453,7643 14557,7680 14647,7737 14734,7792 14811,7859 14878,7936 14945,8016 14999,8094 15042,8175 15085,8256 15114,8330 15132,8396 15137,8413 15141,8423 15148,8430 15155,8436 15161,8439 15170,8438 L 15240,8427 C 15247,8425 15251,8421 15254,8415 15256,8408 15258,8399 15256,8388 15251,8360 15244,8313 15238,8244 15229,8177 15222,8101 15213,8020 15204,7939 15197,7867 15193,7803 15186,7738 15184,7699 15181,7680 15184,7658 15179,7644 15172,7636 15166,7631 15152,7624 15130,7623 15105,7618 15091,7618 15082,7619 15076,7621 15071,7625 15069,7634 L 15044,7710 C 15040,7721 15033,7725 15024,7726 15015,7724 14999,7718 14977,7703 14921,7664 14835,7623 14725,7581 14615,7539 14487,7508 14341,7487 14145,7463 13979,7475 13844,7521 13707,7567 13595,7632 13505,7720 13395,7826 13312,7947 13260,8086 13206,8225 13179,8376 13179,8541 13179,8634 13191,8733 13218,8842 13242,8950 13281,9055 13330,9158 13382,9263 13447,9356 13523,9436 13620,9540 13733,9626 13863,9696 13991,9765 14160,9813 14366,9842 Z"/>
         </g>
        </g>
        <g class="com.sun.star.drawing.ClosedBezierShape">
         <g id="id9">
          <rect class="BoundingBox" stroke="none" fill="none" x="15564" y="7734" width="1488" height="2378"/>
          <path fill="rgb(1,80,160)" stroke="none" d="M 15641,9252 C 15635,9251 15630,9251 15626,9252 15621,9254 15617,9260 15617,9272 L 15565,9871 C 15562,9887 15567,9901 15574,9909 15580,9919 15592,9925 15610,9927 15621,9928 15630,9927 15639,9924 15648,9921 15657,9913 15666,9896 15675,9881 15684,9868 15693,9861 15700,9852 15709,9849 15718,9848 15724,9849 15733,9854 15745,9861 15756,9867 15772,9878 15789,9894 15855,9946 15929,9990 16016,10024 16104,10058 16216,10085 16356,10103 16497,10122 16619,10106 16722,10056 16826,10008 16907,9934 16963,9837 17019,9737 17048,9623 17050,9493 17050,9381 17037,9286 17008,9207 16981,9128 16936,9056 16875,8994 16812,8926 16747,8870 16682,8820 16617,8770 16545,8731 16471,8699 16390,8665 16311,8625 16235,8578 16156,8534 16095,8485 16053,8436 16015,8392 15992,8344 15981,8294 15972,8245 15970,8190 15970,8131 15970,8101 15981,8066 16006,8024 16028,7981 16064,7947 16113,7917 16163,7888 16226,7878 16307,7886 16376,7895 16437,7915 16489,7944 16538,7971 16583,8011 16621,8062 16675,8126 16718,8191 16747,8252 16779,8315 16801,8371 16819,8419 16824,8431 16830,8438 16837,8444 16844,8447 16851,8448 16860,8447 L 16929,8433 C 16934,8434 16938,8432 16941,8430 16943,8426 16945,8422 16945,8417 L 16893,7866 C 16893,7854 16891,7843 16887,7831 16882,7816 16873,7808 16862,7807 16844,7804 16828,7809 16815,7819 L 16774,7857 C 16765,7865 16754,7872 16743,7873 16732,7874 16718,7870 16702,7861 16669,7843 16619,7823 16552,7800 16487,7778 16394,7759 16280,7743 16185,7731 16105,7732 16033,7745 15963,7761 15893,7790 15826,7836 15731,7892 15668,7957 15635,8025 15601,8094 15585,8176 15587,8272 15587,8365 15599,8453 15626,8537 15650,8617 15691,8689 15745,8746 15830,8828 15913,8898 16001,8958 16086,9017 16154,9060 16205,9085 16340,9153 16441,9212 16507,9264 16574,9316 16617,9370 16639,9427 16659,9485 16668,9556 16666,9643 16664,9727 16641,9790 16599,9837 16554,9883 16502,9915 16441,9930 16381,9947 16324,9951 16270,9944 16194,9934 16120,9906 16050,9862 15978,9816 15920,9754 15873,9675 15834,9606 15805,9540 15783,9474 15760,9407 15749,9348 15745,9298 15745,9286 15742,9279 15740,9276 15736,9271 15729,9270 15724,9270 L 15641,9252 Z"/>
         </g>
        </g>
        <g class="com.sun.star.drawing.ClosedBezierShape">
         <g id="id10">
          <rect class="BoundingBox" stroke="none" fill="none" x="17279" y="7916" width="2431" height="2442"/>
          <path fill="rgb(1,80,160)" stroke="none" d="M 17594,8996 C 17591,9060 17591,9144 17591,9249 17589,9353 17587,9462 17585,9574 17583,9685 17580,9783 17578,9867 17576,9949 17574,10001 17571,10019 17567,10043 17558,10062 17540,10072 17522,10083 17499,10087 17470,10083 L 17304,10061 C 17297,10060 17290,10059 17286,10063 17281,10065 17279,10069 17279,10076 L 17279,10160 C 17279,10169 17281,10179 17284,10184 17288,10187 17293,10189 17302,10191 17322,10193 17367,10197 17439,10204 17508,10211 17612,10225 17747,10240 17810,10248 17884,10260 17969,10272 18055,10285 18136,10298 18208,10307 18279,10319 18327,10325 18347,10328 18417,10339 18513,10348 18639,10355 18763,10360 18895,10348 19030,10318 19167,10288 19289,10224 19394,10129 19500,10031 19576,9918 19630,9793 19682,9667 19709,9514 19709,9334 19707,9149 19673,8985 19610,8842 19545,8701 19459,8578 19354,8478 19205,8335 19041,8234 18866,8174 18690,8113 18495,8071 18279,8045 18252,8041 18207,8038 18144,8029 18079,8023 18016,8015 17951,8009 17886,8000 17838,7996 17807,7992 17652,7972 17535,7954 17456,7941 17378,7929 17331,7920 17310,7917 17304,7917 17299,7916 17295,7918 17290,7919 17288,7924 17288,7930 L 17288,8022 C 17288,8033 17290,8038 17295,8043 17299,8046 17306,8047 17315,8048 L 17472,8069 C 17499,8072 17522,8080 17542,8094 17560,8108 17571,8134 17578,8171 17578,8187 17580,8220 17582,8272 17585,8325 17585,8384 17587,8453 17589,8519 17589,8581 17591,8638 17591,8695 17594,8734 17594,8757 L 17594,8996 Z M 18068,8904 C 18068,8888 18068,8856 18068,8806 18068,8755 18068,8698 18068,8632 18068,8569 18068,8505 18068,8446 18070,8384 18070,8336 18070,8302 18072,8271 18077,8242 18086,8220 18095,8196 18111,8182 18133,8174 18153,8165 18178,8161 18205,8160 18232,8162 18268,8164 18311,8170 18373,8178 18443,8199 18520,8231 18596,8264 18670,8306 18744,8359 18819,8412 18884,8473 18942,8545 19019,8639 19079,8752 19127,8879 19174,9008 19196,9139 19199,9271 19196,9421 19176,9555 19133,9675 19093,9793 19039,9893 18974,9968 18889,10067 18792,10134 18684,10170 18576,10206 18475,10215 18381,10203 18327,10195 18275,10184 18228,10167 18183,10149 18149,10124 18129,10092 18109,10060 18093,10030 18086,10000 18077,9971 18073,9941 18075,9912 18073,9859 18073,9793 18073,9711 18070,9629 18070,9547 18070,9462 18068,9375 18068,9302 18068,9241 18068,9179 18068,9143 18068,9129 L 18068,8904 Z"/>
         </g>
        </g>
       </g>
      </g>
     </g>
    </g>
   </g>
  </g>
 </g>
</svg>