<?xml version="1.0" encoding="UTF-8"?>
<!DOCTYPE svg PUBLIC "-//W3C//DTD SVG 1.1//EN" "http://www.w3.org/Graphics/SVG/1.1/DTD/svg11.dtd">
<svg version="1.2" width="279.4mm" height="63.5mm" viewBox="0 0 27940 6350" preserveAspectRatio="xMidYMid" fill-rule="evenodd" stroke-width="28.222" stroke-linejoin="round" xmlns="http://www.w3.org/2000/svg" xmlns:ooo="http://xml.openoffice.org/svg/export" xmlns:xlink="http://www.w3.org/1999/xlink" xmlns:presentation="http://sun.com/xmlns/staroffice/presentation" xmlns:smil="http://www.w3.org/2001/SMIL20/" xmlns:anim="urn:oasis:names:tc:opendocument:xmlns:animation:1.0" xmlns:svg="urn:oasis:names:tc:opendocument:xmlns:svg-compatible:1.0" xml:space="preserve">
 <defs class="ClipPathGroup">
  <clipPath id="presentation_clip_path" clipPathUnits="userSpaceOnUse">
   <rect x="0" y="0" width="27940" height="6350"/>
  </clipPath>
  <clipPath id="presentation_clip_path_shrink" clipPathUnits="userSpaceOnUse">
   <rect x="27" y="6" width="27885" height="6338"/>
  </clipPath>
 </defs>
 <defs class="TextShapeIndex">
  <g ooo:slide="id1" ooo:id-list="id3 id4 id5 id6 id7 id8 id9 id10"/>
 </defs>
 <defs class="EmbeddedBulletChars">
  <g id="bullet-char-template-57356" transform="scale(0.00048828125,-0.00048828125)">
   <path d="M 580,1141 L 1163,571 580,0 -4,571 580,1141 Z"/>
  </g>
  <g id="bullet-char-template-57354" transform="scale(0.00048828125,-0.00048828125)">
   <path d="M 8,1128 L 1137,1128 1137,0 8,0 8,1128 Z"/>
  </g>
  <g id="bullet-char-template-10146" transform="scale(0.00048828125,-0.00048828125)">
   <path d="M 174,0 L 602,739 174,1481 1456,739 174,0 Z M 1358,739 L 309,1346 659,739 1358,739 Z"/>
  </g>
  <g id="bullet-char-template-10132" transform="scale(0.00048828125,-0.00048828125)">
   <path d="M 2015,739 L 1276,0 717,0 1260,543 174,543 174,936 1260,936 717,1481 1274,1481 2015,739 Z"/>
  </g>
  <g id="bullet-char-template-10007" transform="scale(0.00048828125,-0.00048828125)">
   <path d="M 0,-2 C -7,14 -16,27 -25,37 L 356,567 C 262,823 215,952 215,954 215,979 228,992 255,992 264,992 276,990 289,987 310,991 331,999 354,1012 L 381,999 492,748 772,1049 836,1024 860,1049 C 881,1039 901,1025 922,1006 886,937 835,863 770,784 769,783 710,716 594,584 L 774,223 C 774,196 753,168 711,139 L 727,119 C 717,90 699,76 672,76 641,76 570,178 457,381 L 164,-76 C 142,-110 111,-127 72,-127 30,-127 9,-110 8,-76 1,-67 -2,-52 -2,-32 -2,-23 -1,-13 0,-2 Z"/>
  </g>
  <g id="bullet-char-template-10004" transform="scale(0.00048828125,-0.00048828125)">
   <path d="M 285,-33 C 182,-33 111,30 74,156 52,228 41,333 41,471 41,549 55,616 82,672 116,743 169,778 240,778 293,778 328,747 346,684 L 369,508 C 377,444 397,411 428,410 L 1163,1116 C 1174,1127 1196,1133 1229,1133 1271,1133 1292,1118 1292,1087 L 1292,965 C 1292,929 1282,901 1262,881 L 442,47 C 390,-6 338,-33 285,-33 Z"/>
  </g>
  <g id="bullet-char-template-9679" transform="scale(0.00048828125,-0.00048828125)">
   <path d="M 813,0 C 632,0 489,54 383,161 276,268 223,411 223,592 223,773 276,916 383,1023 489,1130 632,1184 813,1184 992,1184 1136,1130 1245,1023 1353,916 1407,772 1407,592 1407,412 1353,268 1245,161 1136,54 992,0 813,0 Z"/>
  </g>
  <g id="bullet-char-template-8226" transform="scale(0.00048828125,-0.00048828125)">
   <path d="M 346,457 C 273,457 209,483 155,535 101,586 74,649 74,723 74,796 101,859 155,911 209,963 273,989 346,989 419,989 480,963 531,910 582,859 608,796 608,723 608,648 583,586 532,535 482,483 420,457 346,457 Z"/>
  </g>
  <g id="bullet-char-template-8211" transform="scale(0.00048828125,-0.00048828125)">
   <path d="M -4,459 L 1135,459 1135,606 -4,606 -4,459 Z"/>
  </g>
  <g id="bullet-char-template-61548" transform="scale(0.00048828125,-0.00048828125)">
   <path d="M 173,740 C 173,903 231,1043 346,1159 462,1274 601,1332 765,1332 928,1332 1067,1274 1183,1159 1299,1043 1357,903 1357,740 1357,577 1299,437 1183,322 1067,206 928,148 765,148 601,148 462,206 346,322 231,437 173,577 173,740 Z"/>
  </g>
 </defs>
 <g>
  <g id="id2" class="Master_Slide">
   <g id="bg-id2" class="Background"/>
   <g id="bo-id2" class="BackgroundObjects"/>
  </g>
 </g>
 <g class="SlideGroup">
  <g>
   <g id="container-id1">
    <g id="id1" class="Slide" clip-path="url(#presentation_clip_path)">
     <g class="Page">
      <g class="Group">
       <g class="Group">
        <g class="com.sun.star.drawing.ClosedBezierShape">
         <g id="id3">
          <rect class="BoundingBox" stroke="none" fill="none" x="457" y="1344" width="2867" height="3216"/>
          <path fill="rgb(255,255,255)" stroke="none" d="M 1609,2754 C 1609,2698 1609,2622 1609,2528 1610,2434 1610,2332 1610,2223 1611,2115 1611,2010 1613,1909 1613,1809 1613,1725 1614,1656 1614,1588 1614,1547 1614,1533 1669,1533 1737,1533 1818,1536 1898,1537 1981,1541 2066,1544 2152,1548 2229,1552 2297,1557 2366,1563 2417,1570 2449,1577 2506,1593 2564,1618 2623,1655 2681,1692 2731,1733 2776,1779 2872,1876 2950,1959 3010,2029 3071,2098 3115,2153 3146,2191 3162,2212 3174,2226 3183,2234 3191,2240 3201,2241 3212,2236 L 3307,2186 C 3314,2184 3319,2180 3320,2173 3323,2167 3323,2160 3320,2150 L 3136,1421 C 3131,1396 3125,1377 3117,1363 3110,1352 3100,1344 3088,1344 3068,1346 3035,1348 2990,1354 2945,1359 2895,1361 2842,1362 2803,1362 2740,1363 2653,1363 2567,1365 2468,1365 2356,1366 2243,1367 2129,1368 2011,1369 1893,1371 1782,1372 1679,1373 1576,1373 1491,1374 1422,1375 1354,1375 1314,1375 1300,1375 1110,1375 957,1374 845,1373 732,1371 649,1368 595,1366 541,1365 506,1363 490,1363 480,1363 473,1366 467,1369 461,1374 457,1381 457,1390 L 457,1519 C 457,1537 472,1547 500,1547 L 694,1547 C 758,1547 806,1557 839,1580 873,1601 889,1633 889,1676 889,1687 889,1716 890,1765 890,1814 891,1875 892,1946 892,2017 893,2092 895,2169 896,2247 896,2319 897,2387 897,2453 898,2508 898,2549 L 898,2861 C 898,3120 897,3351 895,3553 892,3755 889,3920 886,4047 884,4175 881,4253 879,4285 877,4320 865,4345 843,4357 822,4370 786,4376 737,4374 L 571,4374 C 561,4374 553,4376 547,4379 541,4383 538,4389 538,4397 L 538,4518 C 538,4534 539,4544 544,4550 549,4556 557,4559 566,4559 589,4559 627,4557 680,4555 734,4553 809,4550 906,4549 1003,4547 1128,4546 1282,4546 1445,4546 1578,4547 1680,4549 1782,4550 1859,4553 1911,4555 1964,4557 1997,4559 2012,4559 2026,4559 2036,4556 2042,4550 2048,4546 2050,4536 2050,4523 L 2050,4402 C 2050,4384 2036,4374 2007,4374 L 1727,4374 C 1694,4377 1667,4367 1646,4348 1625,4329 1614,4290 1614,4232 1614,4217 1614,4182 1614,4124 1613,4065 1613,3995 1613,3912 1611,3830 1611,3746 1610,3660 1610,3574 1610,3498 1609,3431 1609,3363 1609,3315 1609,3287 L 1609,3117 C 1706,3116 1797,3118 1881,3121 1965,3126 2045,3135 2122,3148 2165,3161 2206,3183 2248,3218 2289,3251 2324,3288 2354,3327 2364,3343 2375,3365 2387,3395 2401,3423 2412,3452 2423,3480 2433,3508 2440,3529 2444,3542 2446,3555 2451,3565 2457,3572 2463,3578 2472,3580 2482,3578 L 2586,3555 C 2597,3553 2606,3549 2611,3543 2617,3539 2620,3530 2620,3520 2616,3489 2612,3447 2608,3395 2605,3343 2602,3287 2600,3226 2597,3167 2595,3108 2595,3054 2595,3037 2595,3005 2595,2959 2596,2912 2596,2861 2596,2804 2597,2747 2599,2695 2600,2647 2601,2598 2602,2565 2605,2544 2605,2535 2602,2527 2597,2521 2592,2516 2586,2513 2576,2513 L 2467,2503 C 2457,2503 2450,2507 2442,2513 2436,2520 2431,2528 2429,2539 2420,2581 2407,2622 2390,2665 2372,2707 2352,2745 2324,2777 2286,2824 2246,2861 2204,2890 2161,2917 2119,2932 2079,2937 2048,2942 2007,2947 1958,2950 1908,2955 1854,2959 1793,2961 1733,2963 1672,2965 1609,2965 L 1609,2754 Z"/>
         </g>
        </g>
        <g class="com.sun.star.drawing.ClosedBezierShape">
         <g id="id4">
          <rect class="BoundingBox" stroke="none" fill="none" x="3483" y="1362" width="1562" height="3197"/>
          <path fill="rgb(255,255,255)" stroke="none" d="M 3925,2982 C 3925,3032 3924,3104 3923,3199 3923,3294 3921,3398 3919,3513 3918,3627 3915,3737 3914,3845 3912,3952 3909,4044 3907,4118 3905,4192 3903,4238 3901,4253 3889,4305 3864,4339 3823,4354 3783,4368 3737,4376 3688,4374 L 3550,4374 C 3538,4374 3529,4377 3522,4380 3516,4385 3512,4392 3512,4400 L 3512,4522 C 3512,4535 3516,4544 3522,4550 3529,4555 3538,4557 3550,4557 3566,4557 3603,4556 3658,4554 3714,4551 3794,4550 3899,4548 4004,4546 4139,4544 4304,4544 4454,4544 4576,4546 4673,4548 4769,4550 4842,4551 4895,4554 4948,4556 4982,4557 5001,4557 5029,4557 5044,4549 5044,4531 L 5044,4405 C 5044,4395 5040,4386 5034,4381 5027,4377 5018,4374 5006,4374 L 4812,4374 C 4765,4376 4727,4366 4697,4346 4666,4324 4652,4280 4650,4213 4650,4204 4649,4173 4649,4119 4648,4065 4648,3996 4647,3914 4646,3833 4644,3747 4643,3655 4642,3564 4641,3477 4639,3395 4638,3313 4637,3244 4637,3189 4636,3135 4636,3104 4636,3094 L 4636,2749 C 4636,2739 4636,2707 4637,2653 4637,2600 4638,2533 4639,2453 4641,2374 4642,2291 4643,2203 4644,2115 4646,2031 4647,1952 4648,1873 4648,1807 4649,1755 4649,1702 4650,1671 4650,1662 4650,1623 4668,1593 4701,1574 4734,1555 4780,1545 4840,1545 L 4978,1545 C 4989,1545 4998,1543 5005,1538 5012,1533 5016,1525 5016,1514 L 5016,1403 C 5016,1390 5013,1379 5007,1372 5002,1366 4994,1362 4982,1362 4962,1362 4927,1363 4878,1366 4829,1368 4757,1369 4663,1372 4567,1374 4440,1375 4280,1375 4049,1374 3871,1373 3746,1368 3621,1365 3544,1362 3517,1362 3507,1362 3500,1365 3494,1369 3487,1373 3484,1380 3484,1390 L 3484,1519 C 3484,1527 3487,1535 3494,1539 3501,1544 3510,1545 3522,1545 L 3749,1545 C 3799,1545 3837,1557 3861,1582 3887,1606 3902,1645 3905,1697 3907,1712 3908,1750 3909,1810 3912,1872 3913,1947 3914,2034 3917,2121 3918,2209 3919,2298 3921,2387 3923,2464 3923,2532 3924,2600 3925,2646 3925,2669 L 3925,2982 Z"/>
         </g>
        </g>
        <g class="com.sun.star.drawing.ClosedBezierShape">
         <g id="id5">
          <rect class="BoundingBox" stroke="none" fill="none" x="5168" y="1362" width="3416" height="3197"/>
          <path fill="rgb(255,255,255)" stroke="none" d="M 8582,4405 C 8583,4396 8581,4389 8576,4383 8571,4377 8560,4374 8544,4374 L 8388,4374 C 8352,4376 8310,4368 8261,4353 8213,4339 8169,4308 8132,4263 8095,4213 8047,4145 7988,4059 7931,3973 7864,3876 7793,3767 7720,3659 7647,3545 7570,3427 7493,3309 7418,3194 7345,3080 7273,2967 7206,2862 7145,2767 7283,2582 7412,2409 7533,2249 7655,2089 7763,1953 7856,1842 7949,1732 8020,1658 8071,1621 8114,1592 8159,1570 8205,1561 8251,1550 8306,1545 8369,1545 L 8497,1545 C 8508,1547 8516,1543 8519,1537 8524,1531 8526,1520 8526,1505 L 8526,1403 C 8526,1391 8523,1381 8519,1374 8515,1367 8503,1362 8487,1362 8463,1362 8410,1365 8328,1368 8247,1373 8140,1374 8008,1375 7826,1374 7686,1373 7585,1368 7486,1365 7423,1362 7397,1362 7383,1362 7374,1365 7370,1369 7365,1374 7364,1382 7364,1393 L 7364,1505 C 7364,1517 7365,1526 7369,1535 7372,1542 7381,1545 7392,1545 L 7510,1545 C 7564,1547 7600,1558 7618,1579 7637,1600 7644,1623 7643,1649 7642,1678 7620,1730 7578,1802 7535,1876 7482,1959 7418,2053 7354,2148 7288,2242 7221,2337 7155,2431 7096,2515 7045,2589 L 7027,2589 C 7008,2560 6980,2514 6940,2448 6899,2382 6855,2306 6804,2222 6755,2137 6707,2054 6662,1972 6615,1890 6577,1819 6547,1759 6517,1700 6502,1661 6501,1644 6502,1613 6514,1588 6539,1571 6563,1555 6594,1547 6634,1545 L 6747,1545 C 6765,1545 6777,1543 6782,1536 6788,1529 6791,1519 6790,1505 L 6790,1403 C 6791,1391 6788,1381 6784,1374 6779,1367 6768,1362 6752,1362 6738,1362 6705,1363 6653,1366 6600,1368 6523,1369 6423,1372 6322,1374 6193,1375 6036,1375 5799,1374 5620,1373 5501,1368 5383,1365 5313,1362 5291,1362 5282,1362 5276,1366 5273,1372 5269,1378 5268,1387 5268,1398 L 5268,1510 C 5268,1519 5269,1527 5273,1535 5276,1542 5282,1545 5291,1545 L 5452,1545 C 5468,1545 5489,1548 5516,1552 5544,1556 5573,1563 5601,1573 5629,1581 5652,1594 5671,1608 5694,1629 5735,1680 5793,1760 5849,1842 5916,1942 5992,2060 6068,2178 6147,2300 6227,2427 6308,2556 6384,2676 6455,2787 6527,2900 6586,2992 6634,3063 6472,3272 6335,3453 6220,3604 6106,3755 6005,3881 5918,3984 5831,4087 5747,4171 5666,4235 5624,4266 5581,4292 5536,4313 5491,4334 5448,4349 5409,4359 5370,4370 5337,4374 5311,4374 L 5196,4374 C 5185,4374 5178,4377 5173,4383 5169,4389 5168,4396 5168,4405 L 5168,4509 C 5168,4524 5169,4536 5173,4544 5178,4553 5185,4557 5196,4557 5218,4557 5275,4555 5364,4551 5452,4547 5568,4546 5709,4544 5900,4546 6045,4547 6143,4551 6243,4555 6303,4557 6325,4557 6341,4557 6352,4554 6357,4548 6362,4541 6363,4531 6363,4517 L 6363,4400 C 6363,4393 6362,4387 6357,4383 6352,4377 6341,4374 6325,4374 L 6187,4374 C 6152,4373 6123,4361 6101,4340 6080,4317 6069,4290 6069,4258 6070,4236 6086,4196 6118,4139 6152,4081 6193,4013 6245,3935 6297,3856 6352,3774 6411,3688 6470,3603 6528,3522 6583,3445 6637,3368 6684,3301 6723,3246 L 6743,3246 C 6780,3307 6823,3379 6873,3463 6925,3547 6977,3635 7031,3725 7085,3817 7135,3904 7182,3984 7229,4066 7265,4135 7295,4190 7324,4246 7339,4280 7340,4294 7340,4322 7329,4343 7307,4355 7285,4368 7247,4374 7193,4374 L 7122,4374 C 7111,4374 7102,4377 7098,4383 7095,4389 7093,4396 7093,4405 L 7093,4517 C 7093,4531 7095,4541 7099,4548 7104,4554 7115,4557 7131,4557 7150,4557 7217,4555 7336,4551 7454,4547 7608,4546 7800,4544 7978,4544 8120,4546 8224,4548 8329,4550 8406,4551 8454,4554 8503,4556 8533,4557 8544,4557 8560,4557 8571,4554 8576,4547 8581,4540 8583,4531 8582,4522 L 8582,4405 Z"/>
         </g>
        </g>
        <g class="com.sun.star.drawing.ClosedBezierShape">
         <g id="id6">
          <rect class="BoundingBox" stroke="none" fill="none" x="9736" y="1308" width="3196" height="3306"/>
          <path fill="rgb(255,255,255)" stroke="none" d="M 11514,4612 C 11737,4610 11937,4574 12114,4504 12291,4435 12447,4343 12580,4233 12714,4121 12827,4001 12918,3874 12927,3861 12932,3849 12931,3841 12929,3831 12926,3824 12918,3820 L 12837,3753 C 12826,3744 12814,3743 12801,3750 12790,3757 12778,3770 12767,3788 12708,3872 12624,3950 12519,4022 12412,4095 12285,4153 12139,4198 11993,4244 11828,4266 11647,4267 11593,4269 11528,4263 11453,4247 11377,4233 11293,4201 11201,4152 11109,4105 11010,4031 10907,3932 10823,3847 10754,3751 10699,3647 10645,3543 10602,3436 10570,3327 10539,3219 10517,3116 10504,3018 10491,2921 10485,2835 10485,2764 10484,2596 10502,2438 10539,2287 10577,2137 10635,2003 10715,1886 10794,1769 10896,1676 11021,1608 11145,1542 11294,1507 11468,1506 11587,1506 11696,1522 11793,1551 11892,1580 11980,1620 12061,1670 12141,1721 12215,1778 12283,1841 12382,1939 12465,2041 12527,2147 12591,2251 12635,2350 12663,2442 12669,2462 12677,2476 12687,2484 12697,2493 12707,2495 12719,2490 L 12824,2463 C 12835,2461 12842,2455 12846,2444 12849,2434 12849,2421 12847,2406 12842,2376 12836,2329 12826,2260 12817,2192 12809,2114 12799,2027 12788,1940 12778,1853 12769,1768 12761,1683 12754,1610 12747,1547 12741,1485 12739,1444 12738,1425 12739,1394 12735,1375 12724,1366 12714,1356 12692,1353 12658,1354 12623,1353 12600,1354 12589,1358 12578,1360 12570,1368 12568,1380 L 12530,1492 C 12525,1508 12516,1517 12501,1518 12487,1519 12462,1512 12430,1497 12374,1468 12299,1438 12205,1410 12111,1381 12002,1358 11878,1339 11755,1319 11621,1310 11476,1309 11281,1310 11106,1331 10951,1373 10795,1416 10659,1473 10538,1545 10419,1618 10314,1700 10225,1793 10059,1960 9937,2147 9856,2351 9776,2556 9737,2774 9737,3005 9737,3136 9755,3274 9793,3421 9830,3567 9887,3709 9963,3845 10040,3981 10136,4100 10253,4201 10351,4284 10457,4358 10573,4418 10688,4480 10821,4528 10973,4561 11126,4595 11306,4612 11514,4612 Z"/>
         </g>
        </g>
        <g class="com.sun.star.drawing.ClosedBezierShape">
         <g id="id7">
          <rect class="BoundingBox" stroke="none" fill="none" x="13209" y="1308" width="3196" height="3306"/>
          <path fill="rgb(255,255,255)" stroke="none" d="M 14987,4612 C 15210,4610 15410,4574 15587,4504 15764,4435 15920,4343 16053,4233 16187,4121 16300,4001 16391,3874 16400,3861 16405,3849 16404,3841 16402,3831 16399,3824 16391,3820 L 16310,3753 C 16299,3744 16287,3743 16275,3750 16263,3757 16251,3770 16240,3788 16181,3872 16097,3950 15992,4022 15885,4095 15758,4153 15612,4198 15466,4244 15301,4266 15120,4267 15066,4269 15001,4263 14926,4247 14850,4233 14766,4201 14674,4152 14582,4105 14483,4031 14380,3932 14296,3847 14228,3751 14172,3647 14118,3543 14075,3436 14043,3327 14012,3219 13990,3116 13977,3018 13964,2921 13958,2835 13958,2764 13957,2596 13976,2438 14012,2287 14051,2137 14108,2003 14188,1886 14267,1769 14369,1676 14494,1608 14619,1542 14767,1507 14941,1506 15060,1506 15169,1522 15266,1551 15365,1580 15453,1620 15534,1670 15614,1721 15688,1778 15756,1841 15855,1939 15938,2041 16000,2147 16064,2251 16109,2350 16136,2442 16142,2462 16150,2476 16160,2484 16170,2493 16180,2495 16192,2490 L 16297,2463 C 16308,2461 16315,2455 16319,2444 16322,2434 16322,2421 16320,2406 16315,2376 16309,2329 16299,2260 16291,2192 16282,2114 16272,2027 16261,1940 16251,1853 16243,1768 16234,1683 16227,1610 16220,1547 16214,1485 16212,1444 16211,1425 16212,1394 16208,1375 16197,1366 16187,1356 16165,1353 16131,1354 16096,1353 16073,1354 16062,1358 16051,1360 16043,1368 16041,1380 L 16003,1492 C 15998,1508 15989,1517 15975,1518 15960,1519 15935,1512 15903,1497 15847,1468 15772,1438 15678,1410 15584,1381 15475,1358 15351,1339 15228,1319 15094,1310 14949,1309 14754,1310 14579,1331 14424,1373 14268,1416 14132,1473 14011,1545 13892,1618 13787,1700 13698,1793 13532,1960 13410,2147 13329,2351 13249,2556 13210,2774 13210,3005 13210,3136 13228,3274 13266,3421 13303,3567 13360,3709 13436,3845 13513,3981 13609,4100 13726,4201 13824,4284 13930,4358 14046,4418 14161,4480 14294,4528 14446,4561 14599,4595 14780,4612 14987,4612 Z"/>
         </g>
        </g>
        <g class="com.sun.star.drawing.ClosedBezierShape">
         <g id="id8">
          <rect class="BoundingBox" stroke="none" fill="none" x="16797" y="1290" width="2226" height="3324"/>
          <path fill="rgb(255,255,255)" stroke="none" d="M 16911,3547 C 16901,3547 16894,3548 16886,3552 16880,3554 16875,3564 16873,3579 L 16798,4429 C 16795,4454 16799,4472 16809,4484 16820,4496 16838,4500 16864,4500 16880,4502 16895,4499 16908,4492 16922,4486 16935,4471 16949,4447 16962,4424 16976,4406 16987,4392 16998,4379 17012,4372 17025,4371 17036,4371 17050,4374 17067,4383 17084,4390 17106,4403 17133,4421 17200,4462 17271,4497 17347,4525 17425,4554 17514,4576 17618,4591 17720,4605 17842,4612 17983,4612 18193,4611 18375,4566 18530,4478 18685,4390 18805,4271 18891,4122 18976,3974 19021,3807 19022,3623 19022,3469 19002,3338 18960,3231 18918,3125 18852,3034 18760,2956 18664,2873 18567,2804 18470,2747 18371,2691 18266,2647 18154,2616 18075,2595 17995,2570 17915,2539 17835,2509 17762,2476 17693,2440 17625,2404 17570,2366 17528,2325 17470,2269 17435,2207 17421,2140 17408,2071 17401,1996 17404,1913 17404,1883 17414,1845 17433,1800 17452,1756 17481,1711 17522,1665 17562,1620 17614,1583 17678,1552 17742,1523 17818,1507 17907,1506 18012,1506 18103,1522 18180,1552 18256,1583 18322,1631 18381,1694 18461,1776 18524,1857 18569,1939 18615,2020 18650,2093 18675,2160 18682,2175 18691,2185 18702,2190 18713,2196 18724,2196 18737,2191 L 18841,2160 C 18848,2157 18855,2155 18858,2150 18862,2147 18864,2141 18864,2133 L 18789,1367 C 18787,1352 18782,1336 18776,1319 18770,1302 18757,1292 18741,1291 18713,1291 18690,1300 18670,1318 L 18609,1375 C 18595,1392 18579,1401 18561,1405 18544,1410 18523,1407 18499,1398 18451,1379 18378,1360 18277,1340 18176,1321 18041,1310 17869,1309 17774,1309 17688,1316 17610,1330 17534,1346 17462,1368 17394,1400 17325,1432 17256,1473 17186,1524 17092,1590 17019,1657 16967,1722 16916,1789 16880,1860 16859,1934 16840,2009 16830,2091 16831,2181 16830,2313 16848,2434 16886,2545 16924,2656 16985,2747 17067,2817 17149,2884 17234,2943 17321,2995 17409,3048 17491,3092 17567,3127 17644,3164 17706,3190 17755,3207 17908,3261 18031,3310 18123,3357 18216,3402 18285,3450 18332,3499 18379,3548 18411,3605 18425,3671 18441,3735 18449,3813 18448,3906 18446,3994 18425,4069 18387,4132 18348,4195 18298,4247 18236,4286 18175,4327 18111,4355 18043,4374 17976,4393 17913,4403 17855,4403 17738,4403 17628,4378 17522,4328 17416,4277 17328,4201 17258,4099 17200,4009 17156,3920 17124,3831 17092,3743 17072,3664 17067,3592 17067,3577 17065,3567 17058,3562 17052,3558 17044,3555 17034,3557 L 16911,3547 Z"/>
         </g>
        </g>
        <g class="com.sun.star.drawing.ClosedBezierShape">
         <g id="id9">
          <rect class="BoundingBox" stroke="none" fill="none" x="19365" y="1362" width="3640" height="3197"/>
          <path fill="rgb(255,255,255)" stroke="none" d="M 19835,2826 C 19835,2896 19834,2986 19832,3098 19831,3208 19830,3327 19827,3453 19825,3579 19823,3700 19819,3817 19816,3933 19814,4032 19810,4113 19808,4195 19804,4246 19802,4266 19797,4303 19782,4329 19756,4347 19730,4365 19695,4374 19649,4374 L 19403,4374 C 19391,4374 19382,4377 19375,4380 19369,4385 19365,4392 19365,4401 L 19365,4517 C 19365,4533 19368,4543 19373,4549 19379,4555 19386,4558 19398,4558 19429,4558 19498,4555 19603,4552 19708,4547 19863,4546 20067,4544 20134,4544 20214,4546 20306,4547 20399,4548 20491,4549 20585,4552 20677,4553 20758,4554 20828,4555 20897,4558 20943,4558 20963,4558 21040,4559 21143,4556 21270,4549 21397,4543 21538,4525 21688,4497 21839,4468 21989,4421 22136,4355 22284,4290 22417,4200 22533,4083 22638,3977 22725,3866 22794,3749 22864,3633 22916,3507 22950,3369 22986,3231 23003,3076 23003,2906 23002,2734 22980,2577 22934,2436 22890,2294 22828,2169 22749,2059 22669,1948 22578,1852 22472,1770 22322,1654 22165,1566 21999,1507 21833,1448 21656,1409 21468,1390 21279,1370 21078,1361 20864,1362 20834,1362 20788,1364 20725,1365 20661,1366 20591,1367 20516,1370 20440,1371 20370,1372 20305,1373 20238,1374 20190,1375 20157,1375 20000,1375 19869,1374 19767,1372 19664,1370 19584,1368 19528,1366 19471,1364 19433,1362 19413,1362 19403,1362 19395,1364 19389,1367 19382,1371 19380,1377 19380,1385 L 19380,1515 C 19380,1528 19382,1536 19390,1541 19396,1544 19406,1547 19417,1545 L 19654,1545 C 19696,1544 19730,1551 19757,1568 19786,1585 19803,1619 19812,1671 19813,1686 19815,1719 19818,1771 19819,1822 19821,1884 19824,1956 19825,2026 19827,2098 19829,2171 19831,2244 19832,2310 19834,2367 19834,2424 19835,2465 19835,2490 L 19835,2826 Z M 20545,2607 C 20545,2591 20545,2558 20545,2509 20545,2460 20545,2401 20545,2332 20547,2263 20547,2192 20547,2120 20547,2046 20548,1977 20548,1914 20549,1851 20549,1800 20550,1761 20552,1715 20559,1676 20573,1643 20586,1610 20611,1585 20645,1568 20675,1554 20710,1543 20752,1538 20793,1535 20845,1532 20911,1532 21005,1532 21109,1549 21223,1580 21336,1611 21449,1656 21560,1717 21672,1777 21770,1852 21856,1940 21931,2019 21996,2110 22054,2215 22112,2319 22157,2431 22190,2551 22222,2671 22240,2792 22240,2915 22237,3125 22205,3318 22142,3492 22080,3667 22000,3816 21903,3936 21819,4038 21727,4122 21625,4187 21522,4251 21418,4298 21313,4329 21208,4359 21109,4374 21015,4374 20933,4374 20857,4367 20786,4351 20716,4334 20666,4307 20636,4266 20606,4225 20585,4184 20573,4145 20560,4106 20555,4064 20555,4020 20554,3963 20553,3892 20553,3806 20552,3719 20550,3628 20550,3532 20549,3435 20548,3343 20548,3256 20547,3168 20547,3094 20547,3034 20545,2974 20545,2937 20545,2924 L 20545,2607 Z"/>
         </g>
        </g>
       </g>
       <g class="com.sun.star.drawing.ClosedBezierShape">
        <g id="id10">
         <rect class="BoundingBox" stroke="none" fill="none" x="24361" y="762" width="3123" height="4803"/>
         <path fill="rgb(255,255,255)" stroke="none" d="M 27482,4561 C 27468,4251 27423,1369 27423,1369 27423,1171 27393,1072 27157,1045 26231,918 25481,818 25056,762 L 25006,762 C 24783,786 24465,1114 24438,1285 24438,1285 24393,2443 24364,2837 24349,3233 24408,3360 24526,3488 24643,3599 26408,5294 26584,5464 26638,5521 26691,5553 26737,5563 L 26787,5563 C 26851,5549 26893,5473 26893,5337 L 26893,5054 27084,4871 26968,4744 26628,5069 24746,3246 C 24746,3246 24835,2936 25202,2837 25202,2837 27055,4617 27232,4786 27378,4984 27496,4871 27482,4561 Z M 27084,3671 L 27129,3896 26909,3784 26687,3896 26732,3671 26555,3501 26791,3473 26893,3261 26996,3473 27232,3501 27084,3671 Z"/>
        </g>
       </g>
      </g>
     </g>
    </g>
   </g>
  </g>
 </g>
</svg>